<svg xmlns="http://www.w3.org/2000/svg" width="24" height="24" viewBox="0 0 24 24" aria-label="Settings">
  <path fill="white" d="M19.14 12.94c.04-.31.06-.63.06-.94s-.02-.63-.06-.94l2.03-1.58c.18-.14.23-.41.12-.61l-1.92-3.32c-.11-.2-.36-.28-.57-.2l-2.39.96c-.5-.38-1.03-.69-1.62-.92l-.36-2.54A.5.5 0 0 0 14 1h-4a.5.5 0 0 0-.49.42l-.36 2.54c-.59.23-1.12.54-1.62.92l-2.39-.96c-.21-.08-.46 0-.57.2L2.65 7.44c-.11.2-.06.47.12.61l2.03 1.58c-.04.31-.06.63-.06.94s.02.63.06.94L2.77 14.52c-.18.14-.23.41-.12.61l1.92 3.32c.11.2.36.28.57.2l2.39-.96c.5.38 1.03.69 1.62.92l.36 2.54c.05.24.25.42.49.42h4c.24 0 .44-.18.49-.42l.36-2.54c.59-.23 1.12-.54 1.62-.92l2.39.96c.21.08.46 0 .57-.2l1.92-3.32c.11-.2.06-.47-.12-.61l-2.03-1.58zM12 15.5A3.5 3.5 0 1 1 12 8a3.5 3.5 0 0 1 0 7.5z"/>
</svg>
