<svg width="1100" height="1100" viewBox="0 0 1100 1100" fill="none" xmlns="http://www.w3.org/2000/svg">
<path d="M536.185 329.976C540.376 317.078 558.624 317.078 562.815 329.976L635.472 553.578C637.347 559.346 642.722 563.252 648.787 563.252H883.91C897.472 563.252 903.111 580.607 892.139 588.578L701.922 726.77C697.015 730.335 694.961 736.654 696.836 742.423L769.492 966.022C773.684 978.921 758.921 989.647 747.949 981.675L557.729 843.481C552.822 839.917 546.178 839.917 541.271 843.481L351.051 981.675C340.079 989.647 325.316 978.921 329.507 966.022L390.157 779.376C391.366 775.655 394.077 772.609 397.634 770.978L579.922 687.349L589.362 683.312C604.724 676.741 597.739 653.634 581.31 656.673L579.922 656.93L380.101 708.166C376.061 709.202 371.769 708.383 368.395 705.931L206.861 588.578C195.889 580.607 201.528 563.252 215.09 563.252H450.213C456.278 563.252 461.653 559.346 463.528 553.578L536.185 329.976Z" fill="url(#paint0_linear_284_1167)"/>
<defs>
<linearGradient id="paint0_linear_284_1167" x1="550.053" y1="342.022" x2="550.053" y2="959.502" gradientUnits="userSpaceOnUse">
<stop stop-color="#7690F7"/>
<stop offset="0.511057" stop-color="#A869E4"/>
<stop offset="1" stop-color="#BE65B5"/>
</linearGradient>
</defs>
</svg>
